<?xml version="1.0" encoding="utf-8"?>
<svg width="16" height="16" viewBox="0 0 16 16" fill="none" stroke="none" version="1.1" xmlns:xlink="http://www.w3.org/1999/xlink" xmlns="http://www.w3.org/2000/svg">
  <defs>
    <path id="path_1" d="M16 0L16 0L16 16L0 16L0 0L16 0Z" />
    <rect id="rect_2" x="0" y="0" width="16" height="16" />
    <clipPath id="clip_path_3">
      <use xlink:href="#rect_2" />
    </clipPath>
  </defs>
  <g id="hitbox_component_3d" opacity="1" clip-path="url(#clip_path_3)">
    <g>
      <use xlink:href="#path_1" style="mix-blend-mode:normal;" />
      <g>
        <g id="corner" transform="translate(1.047 1)">
          <path id="Rectangle" d="M2 0L2 0L2 4L0 4L0 1C0 0.44764 0.44764 0 1 0L2 0Z" style="fill:#E87779;mix-blend-mode:normal;" />
          <rect id="Rectangle" width="2" height="2" style="fill:#E87779;fill-rule:evenodd;mix-blend-mode:normal;" transform="translate(2 0)" />
        </g>
        <g id="corner" transform="matrix(-1 0 0 1 15 1)">
          <path id="Rectangle" d="M2 0L2 0L2 4L0 4L0 1C0 0.44764 0.44764 0 1 0L2 0Z" style="fill:#E87779;mix-blend-mode:normal;" />
          <rect id="Rectangle" width="2" height="2" style="fill:#E87779;fill-rule:evenodd;mix-blend-mode:normal;" transform="translate(2 0)" />
        </g>
        <g id="corner" transform="matrix(-1 0 0 -1 15 15)">
          <path id="Rectangle" d="M2 0L2 0L2 4L0 4L0 1C0 0.44764 0.44764 0 1 0L2 0Z" style="fill:#E87779;mix-blend-mode:normal;" />
          <rect id="Rectangle" width="2" height="2" style="fill:#E87779;fill-rule:evenodd;mix-blend-mode:normal;" transform="translate(2 0)" />
        </g>
        <g id="corner" transform="matrix(1 0 0 -1 1 15)">
          <path id="Rectangle" d="M2 0L2 0L2 4L0 4L0 1C0 0.44764 0.44764 0 1 0L2 0Z" style="fill:#E87779;mix-blend-mode:normal;" />
          <rect id="Rectangle" width="2" height="2" style="fill:#E87779;fill-rule:evenodd;mix-blend-mode:normal;" transform="translate(2 0)" />
        </g>
        <path id="Rectangle" d="M5 0C5.55236 0 6 0.44764 6 1L6 5C6 5.55236 5.55236 6 5 6L1 6C0.44764 6 0 5.55236 0 5L0 1C0 0.44764 0.44764 0 1 0L5 0Z" style="fill:#E87779;mix-blend-mode:normal;" transform="translate(5.047 5)" />
      </g>
    </g>
  </g>
</svg>