<?xml version="1.0" encoding="utf-8"?>
<svg width="16" height="16" viewBox="0 0 16 16" fill="none" stroke="none" version="1.1" xmlns:xlink="http://www.w3.org/1999/xlink" xmlns="http://www.w3.org/2000/svg">
  <defs>
    <path id="path_1" d="M16 0L16 0L16 16L0 16L0 0L16 0Z" />
    <rect id="rect_2" x="0" y="0" width="16" height="16" />
    <clipPath id="clip_path_3">
      <use xlink:href="#rect_2" />
    </clipPath>
  </defs>
  <g id="hurtbox_component_3d" opacity="1" clip-path="url(#clip_path_3)">
    <g>
      <use xlink:href="#path_1" style="mix-blend-mode:normal;" />
      <g>
        <g id="corner" transform="translate(1.047 1)">
          <path id="Rectangle" d="M2 0L2 0L2 4L0 4L0 1C0 0.44764 0.44764 0 1 0L2 0Z" style="fill:#E87779;mix-blend-mode:normal;" />
          <rect id="Rectangle" width="2" height="2" style="fill:#E87779;fill-rule:evenodd;mix-blend-mode:normal;" transform="translate(2 0)" />
        </g>
        <g id="corner" transform="matrix(-1 0 0 1 15 1)">
          <path id="Rectangle" d="M2 0L2 0L2 4L0 4L0 1C0 0.44764 0.44764 0 1 0L2 0Z" style="fill:#E87779;mix-blend-mode:normal;" />
          <rect id="Rectangle" width="2" height="2" style="fill:#E87779;fill-rule:evenodd;mix-blend-mode:normal;" transform="translate(2 0)" />
        </g>
        <g id="corner" transform="matrix(-1 0 0 -1 15 15)">
          <path id="Rectangle" d="M2 0L2 0L2 4L0 4L0 1C0 0.44764 0.44764 0 1 0L2 0Z" style="fill:#E87779;mix-blend-mode:normal;" />
          <rect id="Rectangle" width="2" height="2" style="fill:#E87779;fill-rule:evenodd;mix-blend-mode:normal;" transform="translate(2 0)" />
        </g>
        <g id="corner" transform="matrix(1 0 0 -1 1 15)">
          <path id="Rectangle" d="M2 0L2 0L2 4L0 4L0 1C0 0.44764 0.44764 0 1 0L2 0Z" style="fill:#E87779;mix-blend-mode:normal;" />
          <rect id="Rectangle" width="2" height="2" style="fill:#E87779;fill-rule:evenodd;mix-blend-mode:normal;" transform="translate(2 0)" />
        </g>
        <path id="Shape" d="M2.63263 3.8457L5.67218 0L7.99994 0L7.99994 2.32943L4.21733 5.41593C4.21733 5.41593 3.71559 4.26252 2.63263 3.8457L2.63263 3.8457ZM0.689757 5.05041L1.08029 5.53937L0.199653 6.59847C0.166172 6.63874 0.136596 6.6817 0.110926 6.72735C0.0852547 6.77301 0.06391 6.82061 0.0468922 6.87017C0.0298734 6.91971 0.0174608 6.97039 0.00965405 7.0222C0.00184822 7.07402 -0.00122404 7.12611 0.00043726 7.17848C0.00209951 7.23085 0.00846863 7.28264 0.0195446 7.33385C0.0306201 7.38506 0.0462213 7.43485 0.0663476 7.48321C0.0864735 7.53158 0.110794 7.57773 0.139307 7.62166C0.167822 7.66559 0.200062 7.70659 0.236027 7.74464L0.237385 7.74607C0.272633 7.78337 0.311068 7.81702 0.352687 7.84702C0.394307 7.87701 0.438371 7.90283 0.484879 7.92445C0.531386 7.94608 0.579508 7.96313 0.629246 7.97562C0.678984 7.98811 0.729449 7.9958 0.780643 7.9987C0.831835 8.0016 0.882845 7.99966 0.933671 7.99287C0.984498 7.98608 1.03424 7.97458 1.08289 7.95834C1.13153 7.9421 1.17822 7.92143 1.22295 7.89633C1.26768 7.87123 1.30966 7.84214 1.34889 7.80907L2.49001 6.84684L2.94702 7.29677C2.97734 7.32662 3.01021 7.3533 3.04565 7.37682C3.08109 7.40034 3.11844 7.42026 3.1577 7.43658C3.19696 7.4529 3.23742 7.46533 3.27906 7.47387C3.32071 7.48241 3.36279 7.48689 3.4053 7.48733C3.44781 7.48776 3.48997 7.48413 3.53178 7.47645C3.57359 7.46877 3.61429 7.45716 3.65388 7.44164C3.69346 7.42613 3.73121 7.40697 3.76712 7.38419C3.80303 7.3614 3.83644 7.33539 3.86736 7.30618L3.92714 7.24968C3.9638 7.21502 3.99726 7.1775 4.02751 7.13711C4.05776 7.09672 4.08436 7.05404 4.10731 7.00908C4.13026 6.96412 4.14922 6.91754 4.1642 6.86934C4.17918 6.82113 4.18996 6.77199 4.19654 6.72193C4.20312 6.67188 4.2054 6.62162 4.20338 6.57117C4.20136 6.52071 4.19508 6.4708 4.18453 6.42143C4.17397 6.37206 4.1593 6.32395 4.14052 6.27709C4.12173 6.23023 4.09911 6.18531 4.07264 6.14234L3.85279 5.78535C3.65641 5.46646 3.42567 5.17483 3.16057 4.91047C2.89547 4.6461 2.60329 4.41626 2.28405 4.22093L1.76484 3.90328C1.72496 3.87889 1.68327 3.85814 1.63978 3.84104C1.59628 3.82395 1.55163 3.81076 1.50584 3.80149C1.46003 3.79222 1.41378 3.787 1.36707 3.78582C1.32036 3.78465 1.2739 3.78755 1.22769 3.79452C1.18148 3.80148 1.13623 3.81241 1.09193 3.8273C1.04764 3.8422 1.00496 3.86083 0.963921 3.88319C0.922876 3.90556 0.884085 3.93132 0.847545 3.96048C0.810999 3.98964 0.777257 4.02176 0.746321 4.05683L0.713098 4.09449C0.684412 4.12701 0.658767 4.16179 0.636164 4.19881C0.613562 4.23583 0.594346 4.27454 0.578516 4.31493C0.562686 4.35532 0.550483 4.39679 0.541908 4.43932C0.533333 4.48186 0.528515 4.52481 0.527455 4.56819C0.526396 4.61157 0.529111 4.65471 0.535601 4.69761C0.54209 4.74052 0.552254 4.78253 0.566093 4.82365C0.579934 4.86477 0.597238 4.90437 0.618007 4.94245C0.638775 4.98053 0.662692 5.01652 0.689757 5.05041L0.689757 5.05041Z" style="fill:#E87779;fill-rule:evenodd;mix-blend-mode:normal;" transform="translate(4.047 4)" />
      </g>
    </g>
  </g>
</svg>