<?xml version="1.0" encoding="UTF-8" standalone="no"?>
<svg
   width="16"
   height="16"
   viewBox="0 0 16 16"
   version="1.1"
   id="svg10"
   sodipodi:docname="move_input_icon.svg"
   xmlns:inkscape="http://www.inkscape.org/namespaces/inkscape"
   xmlns:sodipodi="http://sodipodi.sourceforge.net/DTD/sodipodi-0.dtd"
   xmlns:xlink="http://www.w3.org/1999/xlink"
   xmlns="http://www.w3.org/2000/svg"
   xmlns:svg="http://www.w3.org/2000/svg">
  <sodipodi:namedview
     id="namedview10"
     pagecolor="#505050"
     bordercolor="#eeeeee"
     borderopacity="1"
     inkscape:showpageshadow="0"
     inkscape:pageopacity="0"
     inkscape:pagecheckerboard="0"
     inkscape:deskcolor="#505050" />
  <defs
     id="defs2">
    <path
       d="M 16,0 V 0 16 H 0 V 0 Z"
       id="path_1" />
    <path
       d="M 4,0 V 0 4 H 0 V 0 Z"
       id="path_2" />
    <clipPath
       id="clip_1">
      <use
         xlink:href="#path_1"
         clip-rule="evenodd"
         fill-rule="evenodd"
         id="use1" />
    </clipPath>
    <clipPath
       id="clip_2">
      <use
         xlink:href="#path_2"
         clip-rule="evenodd"
         fill-rule="evenodd"
         id="use2" />
    </clipPath>
  </defs>
  <g
     id="g10">
    <path
       d="M 16,0 V 0 16 H 0 V 0 Z"
       id="MoveControlIcon"
       fill="none"
       stroke="none" />
    <g
       id="Group"
       transform="translate(1.0162137,0.99984425)"
       clip-path="url(#clip_1)">
      <path
         d="M 6.98379,1.55747e-4 C 6.72443,0.0038678 6.47666,0.10821 6.29279,0.291156 l -2,2.000004 1.414,1.414 1.293,-1.293 1.293,1.293 1.414,-1.414 -2,-2.000004 C 7.51506,0.100369 7.25422,-0.00461453 6.98379,1.55747e-4 Z M 2.29279,4.29116 l -2.000004,2 c -0.3903815,0.3905 -0.3903815,1.0235 0,1.414 l 2.000004,2 1.414,-1.414 -1.293,-1.293 1.293,-1.293 z m 9.41401,0 -1.414,1.414 1.293,1.293 -1.293,1.293 1.414,1.414 2,-2 c 0.3904,-0.3905 0.3904,-1.0235 0,-1.414 z m -6.00001,6.00004 -1.414,1.414 2,2 c 0.3905,0.3903 1.0235,0.3903 1.414,0 l 2,-2 -1.414,-1.414 -1.293,1.293 z"
         id="Shape"
         fill="#e0e0e0"
         fill-rule="evenodd"
         stroke="none" />
      <path
         d="M 6,5 C 6,4.44772 6.44772,4 7,4 7.55228,4 8,4.44772 8,5 8,5.55228 7.55228,6 7,6 6.44772,6 6,5.55228 6,5 Z"
         id="Oval"
         fill="#8DA5F3"
         fill-rule="evenodd"
         stroke="none"
         style="fill:#e87779;fill-opacity:1" />
      <g
         id="g3">
        <path
           d="M 4,0 V 0 4 H 0 V 0 Z"
           id="touch-f"
           fill="none"
           stroke="none"
           transform="translate(5,5)" />
        <path
           d="m 1.64999,0.166667 c 0.2,0 0.36667,0.166666 0.36667,0.366666 V 1.35 c 0,0 0.4,-0.15 0.58333,0.15 0,0 0.35,-0.05 0.46667,0.2 0.2,-0.03333 0.38333,0.1 0.41666,0.3 v 0.08333 c 0,0 -0.01666,1.21667 -0.05,1.41667 -0.03333,0.2 -0.1,0.33333 -0.23333,0.33333 H 1.66666 c -0.2,0 -0.21667,-0.06666 -0.28334,-0.21666 -0.03333,-0.08334 -0.1,-0.3 -0.21666,-0.53334 C 1.01666,2.75 0.799989,2.45 0.533322,2.2 0.299989,1.98333 0.366656,1.08333 1.28332,2 V 0.533333 c 0,-0.2 0.16667,-0.366666 0.36667,-0.366666 z"
           id="path2"
           fill="#e0e0e0"
           stroke="none"
           clip-path="url(#clip_2)"
           transform="translate(5,5)" />
        <path
           d="m 1.64999,0.166667 c 0.2,0 0.36667,0.166666 0.36667,0.366666 V 1.35 c 0,0 0.4,-0.15 0.58333,0.15 0,0 0.35,-0.05 0.46667,0.2 0.2,-0.03333 0.38333,0.1 0.41666,0.3 v 0.08333 c 0,0 -0.01666,1.21667 -0.05,1.41667 -0.03333,0.2 -0.1,0.33333 -0.23333,0.33333 H 1.66666 c -0.2,0 -0.21667,-0.06666 -0.28334,-0.21666 -0.03333,-0.08334 -0.1,-0.3 -0.21666,-0.53334 C 1.01666,2.75 0.799989,2.45 0.533322,2.2 0.299989,1.98333 0.366656,1.08333 1.28332,2 V 0.533333 c 0,-0.2 0.16667,-0.366666 0.36667,-0.366666 z"
           id="path3"
           fill="#e0e0e0"
           stroke="none"
           clip-path="url(#clip_2)"
           transform="translate(5,5)" />
      </g>
    </g>
    <g
       id="g9"
       transform="translate(1.0162137,0.99984425)"
       clip-path="url(#clip_1)">
      <path
         d="M 6.98379,1.55747e-4 C 6.72443,0.0038678 6.47666,0.10821 6.29279,0.291156 l -2,2.000004 1.414,1.414 1.293,-1.293 1.293,1.293 1.414,-1.414 -2,-2.000004 C 7.51506,0.100369 7.25422,-0.00461453 6.98379,1.55747e-4 Z M 2.29279,4.29116 l -2.000004,2 c -0.3903815,0.3905 -0.3903815,1.0235 0,1.414 l 2.000004,2 1.414,-1.414 -1.293,-1.293 1.293,-1.293 z m 9.41401,0 -1.414,1.414 1.293,1.293 -1.293,1.293 1.414,1.414 2,-2 c 0.3904,-0.3905 0.3904,-1.0235 0,-1.414 z m -6.00001,6.00004 -1.414,1.414 2,2 c 0.3905,0.3903 1.0235,0.3903 1.414,0 l 2,-2 -1.414,-1.414 -1.293,1.293 z"
         id="path4"
         fill="#e0e0e0"
         fill-rule="evenodd"
         stroke="none" />
      <path
         d="M 6,5 C 6,4.44772 6.44772,4 7,4 7.55228,4 8,4.44772 8,5 8,5.55228 7.55228,6 7,6 6.44772,6 6,5.55228 6,5 Z"
         id="path5"
         fill="#8DA5F3"
         fill-rule="evenodd"
         stroke="none"
         style="fill:#e87779;fill-opacity:1" />
      <g
         id="g8">
        <path
           d="M 4,0 V 0 4 H 0 V 0 Z"
           id="path6"
           fill="none"
           stroke="none"
           transform="translate(5,5)" />
        <path
           d="m 1.64999,0.166667 c 0.2,0 0.36667,0.166666 0.36667,0.366666 V 1.35 c 0,0 0.4,-0.15 0.58333,0.15 0,0 0.35,-0.05 0.46667,0.2 0.2,-0.03333 0.38333,0.1 0.41666,0.3 v 0.08333 c 0,0 -0.01666,1.21667 -0.05,1.41667 -0.03333,0.2 -0.1,0.33333 -0.23333,0.33333 H 1.66666 c -0.2,0 -0.21667,-0.06666 -0.28334,-0.21666 -0.03333,-0.08334 -0.1,-0.3 -0.21666,-0.53334 C 1.01666,2.75 0.799989,2.45 0.533322,2.2 0.299989,1.98333 0.366656,1.08333 1.28332,2 V 0.533333 c 0,-0.2 0.16667,-0.366666 0.36667,-0.366666 z"
           id="path7"
           fill="#e0e0e0"
           stroke="none"
           clip-path="url(#clip_2)"
           transform="translate(5,5)" />
        <path
           d="m 1.64999,0.166667 c 0.2,0 0.36667,0.166666 0.36667,0.366666 V 1.35 c 0,0 0.4,-0.15 0.58333,0.15 0,0 0.35,-0.05 0.46667,0.2 0.2,-0.03333 0.38333,0.1 0.41666,0.3 v 0.08333 c 0,0 -0.01666,1.21667 -0.05,1.41667 -0.03333,0.2 -0.1,0.33333 -0.23333,0.33333 H 1.66666 c -0.2,0 -0.21667,-0.06666 -0.28334,-0.21666 -0.03333,-0.08334 -0.1,-0.3 -0.21666,-0.53334 C 1.01666,2.75 0.799989,2.45 0.533322,2.2 0.299989,1.98333 0.366656,1.08333 1.28332,2 V 0.533333 c 0,-0.2 0.16667,-0.366666 0.36667,-0.366666 z"
           id="path8"
           fill="#e0e0e0"
           stroke="none"
           clip-path="url(#clip_2)"
           transform="translate(5,5)" />
      </g>
    </g>
  </g>
</svg>
