<?xml version="1.0" encoding="UTF-8" standalone="no"?>
<svg
   width="16"
   height="16"
   viewBox="0 0 16 16"
   version="1.1"
   id="svg2"
   xmlns:xlink="http://www.w3.org/1999/xlink"
   xmlns="http://www.w3.org/2000/svg"
   xmlns:svg="http://www.w3.org/2000/svg">
  <defs
     id="defs1">
    <path
       d="M 16,0 V 0 16 H 0 V 0 Z"
       id="path_1" />
    <clipPath
       id="clip_1">
      <use
         xlink:href="#path_1"
         clip-rule="evenodd"
         fill-rule="evenodd"
         id="use1" />
    </clipPath>
  </defs>
  <g
     id="g2">
    <path
       d="M 16,0 V 0 16 H 0 V 0 Z"
       id="MoveIcon"
       fill="none"
       stroke="none" />
    <g
       id="Group"
       transform="translate(1.0162137,0.99984425)"
       clip-path="url(#clip_1)">
      <path
         d="M 6.98379,1.55747e-4 C 6.72443,0.0038678 6.47666,0.10821 6.29279,0.291156 l -2,2.000004 1.414,1.414 1.293,-1.293 1.293,1.293 1.414,-1.414 -2,-2.000004 C 7.51506,0.100369 7.25422,-0.00461453 6.98379,1.55747e-4 Z M 2.29279,4.29116 l -2.000004,2 c -0.3903815,0.3905 -0.3903815,1.0235 0,1.414 l 2.000004,2 1.414,-1.414 -1.293,-1.293 1.293,-1.293 z m 9.41401,0 -1.414,1.414 1.293,1.293 -1.293,1.293 1.414,1.414 2,-2 c 0.3904,-0.3905 0.3904,-1.0235 0,-1.414 z m -6.00001,6.00004 -1.414,1.414 2,2 c 0.3905,0.3903 1.0235,0.3903 1.414,0 l 2,-2 -1.414,-1.414 -1.293,1.293 z"
         id="Shape"
         fill="#E0E0E0"
         fill-rule="evenodd"
         stroke="none"
         style="fill:#e87779;fill-opacity:1" />
    </g>
    <g
       id="g1"
       transform="translate(1.0162137,0.99984425)"
       clip-path="url(#clip_1)">
      <path
         d="M 6.98379,1.55747e-4 C 6.72443,0.0038678 6.47666,0.10821 6.29279,0.291156 l -2,2.000004 1.414,1.414 1.293,-1.293 1.293,1.293 1.414,-1.414 -2,-2.000004 C 7.51506,0.100369 7.25422,-0.00461453 6.98379,1.55747e-4 Z M 2.29279,4.29116 l -2.000004,2 c -0.3903815,0.3905 -0.3903815,1.0235 0,1.414 l 2.000004,2 1.414,-1.414 -1.293,-1.293 1.293,-1.293 z m 9.41401,0 -1.414,1.414 1.293,1.293 -1.293,1.293 1.414,1.414 2,-2 c 0.3904,-0.3905 0.3904,-1.0235 0,-1.414 z m -6.00001,6.00004 -1.414,1.414 2,2 c 0.3905,0.3903 1.0235,0.3903 1.414,0 l 2,-2 -1.414,-1.414 -1.293,1.293 z"
         id="path1"
         fill="#E0E0E0"
         fill-rule="evenodd"
         stroke="none"
         style="fill:#e87779;fill-opacity:1" />
    </g>
  </g>
</svg>
